<mxfile host="app.diagrams.net" modified="2020-10-22T19:00:56.626Z" agent="5.0 (Windows NT 10.0; WOW64) AppleWebKit/537.36 (KHTML, like Gecko) Chrome/70.0.3538.25 Safari/537.36 Core/1.70.3776.400 QQBrowser/10.6.4212.400" etag="jz53Nr1Zb9eDcCCLjnbQ" version="13.8.1" type="github">
  <diagram id="EMb9a52ZK869wd0jpyi6" name="Page-1">
    <mxGraphModel dx="965" dy="1690" grid="0" gridSize="10" guides="1" tooltips="1" connect="1" arrows="1" fold="1" page="1" pageScale="1" pageWidth="827" pageHeight="1169" math="0" shadow="0">
      <root>
        <mxCell id="0" />
        <mxCell id="1" parent="0" />
        <mxCell id="aMiIuQpYwiAZB024T4Vh-10" value="" style="rounded=0;whiteSpace=wrap;html=1;" vertex="1" parent="1">
          <mxGeometry x="354" y="71" width="120" height="60" as="geometry" />
        </mxCell>
        <mxCell id="aMiIuQpYwiAZB024T4Vh-11" value="&lt;font style=&quot;font-size: 20px&quot;&gt;conv2D,3x3&lt;/font&gt;" style="text;html=1;strokeColor=none;fillColor=none;align=center;verticalAlign=middle;whiteSpace=wrap;rounded=0;" vertex="1" parent="1">
          <mxGeometry x="359.5" y="91" width="109" height="20" as="geometry" />
        </mxCell>
        <mxCell id="aMiIuQpYwiAZB024T4Vh-12" value="" style="endArrow=classic;html=1;entryX=0.5;entryY=0;entryDx=0;entryDy=0;" edge="1" parent="1" target="aMiIuQpYwiAZB024T4Vh-10">
          <mxGeometry width="50" height="50" relative="1" as="geometry">
            <mxPoint x="414" y="-1" as="sourcePoint" />
            <mxPoint x="414" y="68" as="targetPoint" />
          </mxGeometry>
        </mxCell>
        <mxCell id="aMiIuQpYwiAZB024T4Vh-13" value="" style="endArrow=classic;html=1;entryX=0.5;entryY=0;entryDx=0;entryDy=0;exitX=0.5;exitY=1;exitDx=0;exitDy=0;" edge="1" parent="1" source="aMiIuQpYwiAZB024T4Vh-10" target="aMiIuQpYwiAZB024T4Vh-14">
          <mxGeometry width="50" height="50" relative="1" as="geometry">
            <mxPoint x="675" y="52" as="sourcePoint" />
            <mxPoint x="675" y="124" as="targetPoint" />
          </mxGeometry>
        </mxCell>
        <mxCell id="aMiIuQpYwiAZB024T4Vh-14" value="" style="rounded=0;whiteSpace=wrap;html=1;" vertex="1" parent="1">
          <mxGeometry x="354" y="156" width="120" height="60" as="geometry" />
        </mxCell>
        <mxCell id="aMiIuQpYwiAZB024T4Vh-15" value="&lt;font style=&quot;font-size: 20px&quot;&gt;conv2D,3x3&lt;/font&gt;" style="text;html=1;strokeColor=none;fillColor=none;align=center;verticalAlign=middle;whiteSpace=wrap;rounded=0;" vertex="1" parent="1">
          <mxGeometry x="359.5" y="176" width="109" height="20" as="geometry" />
        </mxCell>
        <mxCell id="aMiIuQpYwiAZB024T4Vh-18" value="" style="endArrow=classic;html=1;exitX=0.5;exitY=1;exitDx=0;exitDy=0;" edge="1" parent="1" source="aMiIuQpYwiAZB024T4Vh-14">
          <mxGeometry width="50" height="50" relative="1" as="geometry">
            <mxPoint x="387" y="294" as="sourcePoint" />
            <mxPoint x="414" y="394" as="targetPoint" />
          </mxGeometry>
        </mxCell>
        <mxCell id="aMiIuQpYwiAZB024T4Vh-19" value="" style="endArrow=classic;html=1;exitX=0.5;exitY=1;exitDx=0;exitDy=0;entryX=0;entryY=0;entryDx=0;entryDy=0;" edge="1" parent="1" source="aMiIuQpYwiAZB024T4Vh-14" target="aMiIuQpYwiAZB024T4Vh-20">
          <mxGeometry width="50" height="50" relative="1" as="geometry">
            <mxPoint x="387" y="294" as="sourcePoint" />
            <mxPoint x="514" y="273" as="targetPoint" />
          </mxGeometry>
        </mxCell>
        <mxCell id="aMiIuQpYwiAZB024T4Vh-20" value="" style="rounded=0;whiteSpace=wrap;html=1;" vertex="1" parent="1">
          <mxGeometry x="517" y="241" width="195" height="60" as="geometry" />
        </mxCell>
        <mxCell id="aMiIuQpYwiAZB024T4Vh-21" value="&lt;font style=&quot;font-size: 20px&quot;&gt;Calculate attention weight&lt;/font&gt;" style="text;html=1;strokeColor=none;fillColor=none;align=center;verticalAlign=middle;whiteSpace=wrap;rounded=0;" vertex="1" parent="1">
          <mxGeometry x="529" y="253" width="171" height="36" as="geometry" />
        </mxCell>
        <mxCell id="aMiIuQpYwiAZB024T4Vh-22" value="" style="endArrow=classic;html=1;exitX=0;exitY=0.5;exitDx=0;exitDy=0;" edge="1" parent="1" source="aMiIuQpYwiAZB024T4Vh-20">
          <mxGeometry width="50" height="50" relative="1" as="geometry">
            <mxPoint x="387" y="294" as="sourcePoint" />
            <mxPoint x="411" y="289" as="targetPoint" />
          </mxGeometry>
        </mxCell>
        <mxCell id="aMiIuQpYwiAZB024T4Vh-23" value="&lt;font style=&quot;font-size: 20px&quot;&gt;Multiply&lt;/font&gt;" style="text;html=1;strokeColor=none;fillColor=none;align=center;verticalAlign=middle;whiteSpace=wrap;rounded=0;" vertex="1" parent="1">
          <mxGeometry x="455" y="283" width="40" height="20" as="geometry" />
        </mxCell>
        <mxCell id="aMiIuQpYwiAZB024T4Vh-24" value="" style="endArrow=classic;html=1;" edge="1" parent="1">
          <mxGeometry width="50" height="50" relative="1" as="geometry">
            <mxPoint x="416" y="26" as="sourcePoint" />
            <mxPoint x="416" y="340" as="targetPoint" />
            <Array as="points">
              <mxPoint x="240" y="26" />
              <mxPoint x="240" y="340" />
            </Array>
          </mxGeometry>
        </mxCell>
        <mxCell id="aMiIuQpYwiAZB024T4Vh-25" value="&lt;font style=&quot;font-size: 20px&quot;&gt;Add&lt;/font&gt;" style="text;html=1;strokeColor=none;fillColor=none;align=center;verticalAlign=middle;whiteSpace=wrap;rounded=0;" vertex="1" parent="1">
          <mxGeometry x="192" y="176" width="40" height="20" as="geometry" />
        </mxCell>
      </root>
    </mxGraphModel>
  </diagram>
</mxfile>
